<?xml version="1.0" encoding="iso-8859-1"?>
<!-- Generator: Adobe Illustrator 19.0.0, SVG Export Plug-In . SVG Version: 6.00 Build 0)  -->
<svg version="1.1" id="Layer_1" xmlns="http://www.w3.org/2000/svg" xmlns:xlink="http://www.w3.org/1999/xlink" x="0px" y="0px"
	 viewBox="0 0 485 485" style="enable-background:new 0 0 485 485;" xml:space="preserve">
<g>
	<path d="M242.5,0C160.048,0,92.969,67.079,92.969,149.531h30C122.969,83.621,176.59,30,242.5,30s119.531,53.621,119.531,119.531
		c0,14.859-2.692,29.357-8.002,43.09l-82.446,213.207C260.208,435.239,231.383,455,199.854,455h-51.885v30h51.885
		c21.999,0,43.13-6.637,61.111-19.191c17.554-12.258,30.901-29.257,38.599-49.16l82.446-213.207
		c6.65-17.197,10.022-35.336,10.022-53.91C392.031,67.079,324.952,0,242.5,0z"/>
	<path d="M167.969,316.563h-20v30h20c35.583,0,64.531-28.948,64.531-64.531c0-30.42-21.158-55.992-49.531-62.771v-69.729
		C182.969,116.706,209.674,90,242.5,90s59.531,26.706,59.531,59.531h30C332.031,100.163,291.868,60,242.5,60
		s-89.531,40.163-89.531,89.531V247.5h15c19.041,0,34.531,15.49,34.531,34.531S187.009,316.563,167.969,316.563z"/>
</g>
<g>
</g>
<g>
</g>
<g>
</g>
<g>
</g>
<g>
</g>
<g>
</g>
<g>
</g>
<g>
</g>
<g>
</g>
<g>
</g>
<g>
</g>
<g>
</g>
<g>
</g>
<g>
</g>
<g>
</g>
</svg>
